<svg width="26" height="26" viewBox="0 0 26 26" fill="none" xmlns="http://www.w3.org/2000/svg">
<path fill-rule="evenodd" clip-rule="evenodd" d="M23.9832 2.01684C22.6274 0.661055 20.4292 0.661055 19.0734 2.01684L17.0878 4.00251C17.0875 4.00282 17.0871 4.00313 17.0868 4.00345C17.0865 4.00376 17.0862 4.00407 17.0859 4.00438L7.81599 13.2743L7.74813 13.3538C7.66669 13.4661 7.62203 13.602 7.62203 13.7425V17.7158L7.6327 17.8348C7.68877 18.1437 7.95915 18.378 8.28424 18.378H12.2575L12.3617 18.3697C12.4987 18.3479 12.6264 18.2834 12.7257 18.184L21.9966 8.91316L23.9832 6.92655L24.1523 6.74507C25.3364 5.38122 25.28 3.31367 23.9832 2.01684ZM21.5282 7.50834L23.0467 5.99006C23.8359 5.20082 23.8823 3.95005 23.1859 3.10651L23.0467 2.95333C22.2574 2.16409 21.0067 2.11767 20.1631 2.81406L20.0099 2.95333L18.4915 4.47159L21.5282 7.50834ZM17.5549 5.40803L20.5917 8.44478L11.9833 17.0522H8.94644V14.0154L17.5549 5.40803ZM9.25 4C9.66421 4 10 4.33579 10 4.75C10 5.11819 9.73469 5.42441 9.38481 5.48792L9.25 5.5H4.75C3.58046 5.5 2.61933 6.39233 2.5103 7.53331L2.5 7.75V21.25C2.5 22.4195 3.39233 23.3807 4.53331 23.4897L4.75 23.5H18.25C19.4195 23.5 20.3807 22.6077 20.4897 21.4667L20.5 21.25V16.75C20.5 16.3358 20.8358 16 21.25 16C21.6182 16 21.9244 16.2653 21.9879 16.6152L22 16.75V21.25C22 23.2382 20.4527 24.8651 18.4966 24.992L18.25 25H4.75C2.76177 25 1.13494 23.4527 1.00798 21.4966L1 21.25V7.75C1 5.76178 2.5473 4.13494 4.50344 4.00798L4.75 4H9.25Z" fill="#666666"/>
<path d="M19.0734 2.01684L19.427 2.37039V2.37039L19.0734 2.01684ZM23.9832 2.01684L24.3367 1.66328V1.66328L23.9832 2.01684ZM17.0878 4.00251L17.4405 4.35687L17.4413 4.35606L17.0878 4.00251ZM17.0868 4.00345L16.7337 3.64949L16.7336 3.64962L17.0868 4.00345ZM17.0859 4.00438L17.4395 4.35794L17.4405 4.35685L17.0859 4.00438ZM7.81599 13.2743L7.46244 12.9207L7.44847 12.9347L7.43564 12.9497L7.81599 13.2743ZM7.74813 13.3538L7.36778 13.0293L7.35495 13.0443L7.34334 13.0603L7.74813 13.3538ZM7.62203 17.7158H7.12203V17.7381L7.12403 17.7604L7.62203 17.7158ZM7.6327 17.8348L7.1347 17.8794L7.13671 17.9019L7.14074 17.9241L7.6327 17.8348ZM12.2575 18.378V18.878H12.2772L12.2969 18.8764L12.2575 18.378ZM12.3617 18.3697L12.4011 18.8682L12.4208 18.8666L12.4404 18.8635L12.3617 18.3697ZM12.7257 18.184L13.0793 18.5376L12.7257 18.184ZM21.9966 8.91316L21.643 8.55961L21.9966 8.91316ZM23.9832 6.92655L24.3367 7.28011L24.3429 7.27389L24.3489 7.26747L23.9832 6.92655ZM24.1523 6.74507L24.5181 7.08599L24.5241 7.07953L24.5299 7.07286L24.1523 6.74507ZM21.5282 7.50834L21.1747 7.86189L21.5282 8.21543L21.8818 7.86191L21.5282 7.50834ZM23.0467 5.99006L23.4002 6.34363L23.4002 6.34361L23.0467 5.99006ZM23.1859 3.10651L23.5715 2.78819L23.5639 2.77898L23.5559 2.77015L23.1859 3.10651ZM23.0467 2.95333L23.4166 2.61697L23.4086 2.60818L23.4002 2.59978L23.0467 2.95333ZM20.1631 2.81406L19.8448 2.42847L19.8356 2.43608L19.8268 2.44411L20.1631 2.81406ZM20.0099 2.95333L19.6736 2.58339L19.6648 2.59137L19.6564 2.59976L20.0099 2.95333ZM18.4915 4.47159L18.138 4.11802L17.7844 4.47157L18.1379 4.82515L18.4915 4.47159ZM20.5917 8.44478L20.9452 8.79836L21.2988 8.4448L20.9452 8.09123L20.5917 8.44478ZM17.5549 5.40803L17.9085 5.05448L17.5549 4.70095L17.2014 5.05445L17.5549 5.40803ZM11.9833 17.0522V17.5522H12.1904L12.3368 17.4058L11.9833 17.0522ZM8.94644 17.0522H8.44644V17.5522H8.94644V17.0522ZM8.94644 14.0154L8.59291 13.6618L8.44644 13.8082V14.0154H8.94644ZM9.38481 5.48792L9.42945 5.98592L9.45191 5.98391L9.47411 5.97988L9.38481 5.48792ZM9.25 5.5V6H9.27236L9.29464 5.998L9.25 5.5ZM2.5103 7.53331L2.01257 7.48575L2.01143 7.49764L2.01086 7.50957L2.5103 7.53331ZM2.5 7.75L2.00056 7.72626L2 7.73812V7.75H2.5ZM4.53331 23.4897L4.48575 23.9874L4.49764 23.9886L4.50957 23.9891L4.53331 23.4897ZM4.75 23.5L4.72626 23.9994L4.73812 24H4.75V23.5ZM20.4897 21.4667L20.9874 21.5143L20.9886 21.5024L20.9891 21.4904L20.4897 21.4667ZM20.5 21.25L20.9994 21.2737L21 21.2619V21.25H20.5ZM21.9879 16.6152L22.4859 16.5706L22.4839 16.5481L22.4799 16.5259L21.9879 16.6152ZM22 16.75H22.5V16.7276L22.498 16.7054L22 16.75ZM18.4966 24.992L18.5127 25.4918L18.5208 25.4915L18.5289 25.491L18.4966 24.992ZM18.25 25V25.5H18.2581L18.2662 25.4997L18.25 25ZM1.00798 21.4966L0.508238 21.5127L0.5085 21.5208L0.509026 21.5289L1.00798 21.4966ZM1 21.25H0.5V21.2581L0.500261 21.2662L1 21.25ZM4.50344 4.00798L4.48727 3.50824L4.47915 3.5085L4.47105 3.50903L4.50344 4.00798ZM4.75 4V3.5H4.74191L4.73383 3.50026L4.75 4ZM19.427 2.37039C20.5875 1.20987 22.4691 1.20987 23.6296 2.37039L24.3367 1.66328C22.7857 0.112239 20.2709 0.112239 18.7199 1.66328L19.427 2.37039ZM17.4413 4.35606L19.427 2.37039L18.7199 1.66328L16.7342 3.64896L17.4413 4.35606ZM17.44 4.3574L17.4405 4.35687L16.735 3.64815C16.7345 3.64872 16.734 3.6492 16.7338 3.64939C16.7335 3.64969 16.7336 3.64957 16.7337 3.64949L17.44 4.3574ZM17.4405 4.35685L17.4401 4.35727L16.7336 3.64962C16.7331 3.65007 16.7323 3.65092 16.7313 3.65191L17.4405 4.35685ZM8.16954 13.6278L17.4395 4.35794L16.7323 3.65083L7.46244 12.9207L8.16954 13.6278ZM8.12848 13.6784L8.19634 13.5988L7.43564 12.9497L7.36778 13.0293L8.12848 13.6784ZM8.12203 13.7425C8.12203 13.7081 8.13296 13.6748 8.15292 13.6473L7.34334 13.0603C7.20041 13.2574 7.12203 13.4959 7.12203 13.7425H8.12203ZM8.12203 17.7158V13.7425H7.12203V17.7158H8.12203ZM8.13071 17.7902L8.12004 17.6711L7.12403 17.7604L7.1347 17.8794L8.13071 17.7902ZM8.28424 17.878C8.20514 17.878 8.13834 17.8209 8.12466 17.7455L7.14074 17.9241C7.23921 18.4666 7.71316 18.878 8.28424 18.878V17.878ZM12.2575 17.878H8.28424V18.878H12.2575V17.878ZM12.3222 17.8713L12.218 17.8795L12.2969 18.8764L12.4011 18.8682L12.3222 17.8713ZM12.3722 17.8305C12.3478 17.8548 12.3166 17.8706 12.283 17.8759L12.4404 18.8635C12.6808 18.8252 12.9049 18.7119 13.0793 18.5376L12.3722 17.8305ZM21.643 8.55961L12.3722 17.8305L13.0793 18.5376L22.3501 9.26672L21.643 8.55961ZM23.6296 6.573L21.643 8.55961L22.3501 9.26672L24.3367 7.28011L23.6296 6.573ZM23.7866 6.40416L23.6174 6.58564L24.3489 7.26747L24.5181 7.08599L23.7866 6.40416ZM23.6296 2.37039C24.7395 3.4803 24.788 5.25023 23.7748 6.41728L24.5299 7.07286C25.8848 5.51221 25.8205 3.14704 24.3367 1.66328L23.6296 2.37039ZM21.8818 7.86191L23.4002 6.34363L22.6931 5.63648L21.1747 7.15476L21.8818 7.86191ZM23.4002 6.34361C24.3734 5.37039 24.4304 3.82856 23.5715 2.78819L22.8004 3.42483C23.3343 4.07154 23.2984 5.03124 22.6931 5.6365L23.4002 6.34361ZM23.5559 2.77015L23.4166 2.61697L22.6767 3.2897L22.816 3.44288L23.5559 2.77015ZM23.4002 2.59978C22.427 1.62656 20.8852 1.56959 19.8448 2.42847L20.4814 3.19964C21.1281 2.66574 22.0879 2.70163 22.6931 3.30689L23.4002 2.59978ZM19.8268 2.44411L19.6736 2.58339L20.3463 3.32327L20.4995 3.184L19.8268 2.44411ZM19.6564 2.59976L18.138 4.11802L18.845 4.82517L20.3635 3.30691L19.6564 2.59976ZM18.1379 4.82515L21.1747 7.86189L21.8818 7.15478L18.845 4.11804L18.1379 4.82515ZM20.9452 8.09123L17.9085 5.05448L17.2014 5.76158L20.2381 8.79834L20.9452 8.09123ZM12.3368 17.4058L20.9452 8.79836L20.2381 8.09121L11.6298 16.6987L12.3368 17.4058ZM8.94644 17.5522H11.9833V16.5522H8.94644V17.5522ZM8.44644 14.0154V17.0522H9.44644V14.0154H8.44644ZM17.2014 5.05445L8.59291 13.6618L9.29997 14.3689L17.9085 5.76161L17.2014 5.05445ZM10.5 4.75C10.5 4.05964 9.94036 3.5 9.25 3.5V4.5C9.38807 4.5 9.5 4.61193 9.5 4.75H10.5ZM9.47411 5.97988C10.0575 5.87398 10.5 5.36418 10.5 4.75H9.5C9.5 4.8722 9.41183 4.97484 9.29552 4.99595L9.47411 5.97988ZM9.29464 5.998L9.42945 5.98592L9.34018 4.98991L9.20536 5.002L9.29464 5.998ZM4.75 6H9.25V5H4.75V6ZM3.00803 7.58087C3.09278 6.69398 3.84064 6 4.75 6V5C3.32027 5 2.14587 6.09069 2.01257 7.48575L3.00803 7.58087ZM2.99944 7.77374L3.00974 7.55705L2.01086 7.50957L2.00056 7.72626L2.99944 7.77374ZM3 21.25V7.75H2V21.25H3ZM4.58087 22.992C3.69398 22.9072 3 22.1594 3 21.25H2C2 22.6797 3.09069 23.8541 4.48575 23.9874L4.58087 22.992ZM4.77374 23.0006L4.55705 22.9903L4.50957 23.9891L4.72626 23.9994L4.77374 23.0006ZM18.25 23H4.75V24H18.25V23ZM19.992 21.4191C19.9072 22.306 19.1594 23 18.25 23V24C19.6797 24 20.8541 22.9093 20.9874 21.5143L19.992 21.4191ZM20.0006 21.2263L19.9903 21.443L20.9891 21.4904L20.9994 21.2737L20.0006 21.2263ZM20 16.75V21.25H21V16.75H20ZM21.25 15.5C20.5596 15.5 20 16.0596 20 16.75H21C21 16.6119 21.1119 16.5 21.25 16.5V15.5ZM22.4799 16.5259C22.374 15.9425 21.8642 15.5 21.25 15.5V16.5C21.3722 16.5 21.4748 16.5882 21.496 16.7045L22.4799 16.5259ZM22.498 16.7054L22.4859 16.5706L21.4899 16.6598L21.502 16.7946L22.498 16.7054ZM22.5 21.25V16.75H21.5V21.25H22.5ZM18.5289 25.491C20.7464 25.347 22.5 23.5035 22.5 21.25H21.5C21.5 22.9729 20.159 24.3831 18.4642 24.4931L18.5289 25.491ZM18.2662 25.4997L18.5127 25.4918L18.4804 24.4923L18.2338 24.5003L18.2662 25.4997ZM4.75 25.5H18.25V24.5H4.75V25.5ZM0.509026 21.5289C0.652952 23.7464 2.49648 25.5 4.75 25.5V24.5C3.02707 24.5 1.61693 23.159 1.50693 21.4642L0.509026 21.5289ZM0.500261 21.2662L0.508238 21.5127L1.50772 21.4804L1.49974 21.2338L0.500261 21.2662ZM0.5 7.75V21.25H1.5V7.75H0.5ZM4.47105 3.50903C2.25362 3.65295 0.5 5.49648 0.5 7.75H1.5C1.5 6.02707 2.84098 4.61693 4.53582 4.50693L4.47105 3.50903ZM4.73383 3.50026L4.48727 3.50824L4.5196 4.50771L4.76617 4.49974L4.73383 3.50026ZM9.25 3.5H4.75V4.5H9.25V3.5Z" fill="#6D7A90"/>
</svg>
