<svg width="14" height="5" viewBox="0 0 14 5" fill="none" xmlns="http://www.w3.org/2000/svg">
<path d="M13.4874 1.01583C12.804 0.325681 11.696 0.325681 11.0126 1.01583C10.3291 1.70599 10.3291 2.82495 11.0126 3.5151C11.696 4.20525 12.804 4.20525 13.4874 3.5151C14.1709 2.82498 14.1709 1.70601 13.4874 1.01583Z" fill="#B3B3BF"/>
<path d="M8.23744 1.01583C7.55402 0.325681 6.44598 0.325681 5.76257 1.01583C5.07915 1.70599 5.07915 2.82495 5.76257 3.5151C6.44598 4.20525 7.55402 4.20525 8.23744 3.5151C8.92085 2.82498 8.92085 1.70601 8.23744 1.01583Z" fill="#B3B3BF"/>
<path d="M2.98744 1.01583C2.30402 0.325681 1.19598 0.325681 0.512564 1.01583C-0.170852 1.70599 -0.170852 2.82495 0.512564 3.5151C1.19598 4.20525 2.30402 4.20525 2.98744 3.5151C3.67085 2.82498 3.67085 1.70601 2.98744 1.01583Z" fill="#B3B3BF"/>
</svg>
