<svg width="17" height="17" viewBox="0 0 17 17" fill="none" xmlns="http://www.w3.org/2000/svg">
<path d="M13.4045 10.4903C13.1864 10.7038 13.0862 11.0125 13.1359 11.3152L13.8844 15.4989C13.9476 15.8535 13.7994 16.2123 13.5055 16.4173C13.2175 16.6299 12.8344 16.6554 12.5203 16.4853L8.79089 14.521C8.66121 14.4513 8.51722 14.4139 8.36986 14.4096H8.14167C8.06252 14.4215 7.98505 14.447 7.91432 14.4861L4.18404 16.4598C3.99963 16.5533 3.7908 16.5865 3.58618 16.5533C3.08769 16.4581 2.75508 15.9785 2.83676 15.4725L3.58618 11.2888C3.63586 10.9835 3.53566 10.6732 3.31757 10.4563L0.27693 7.4801C0.0226308 7.23095 -0.0657844 6.8568 0.0504184 6.51921C0.163253 6.18247 0.451234 5.93672 0.799 5.88145L4.98398 5.26834C5.30228 5.23518 5.58184 5.0396 5.72499 4.75048L7.56908 0.932412C7.61286 0.847377 7.66928 0.769145 7.73749 0.702817L7.81327 0.643293C7.85285 0.599075 7.89832 0.56251 7.94884 0.532747L8.04062 0.498733L8.18377 0.439209H8.53827C8.85488 0.472373 9.1336 0.663701 9.27928 0.949419L11.1478 4.75048C11.2825 5.02855 11.5444 5.22158 11.8467 5.26834L16.0317 5.88145C16.3853 5.93247 16.6809 6.17907 16.7979 6.51921C16.9082 6.8602 16.8131 7.23435 16.5537 7.4801L13.4045 10.4903Z" fill="#FFD66B"/>
</svg>
