<svg width="25" height="26" viewBox="0 0 25 26" fill="none" xmlns="http://www.w3.org/2000/svg">
<path fill-rule="evenodd" clip-rule="evenodd" d="M8.76471 1H3.11765C1.9481 1 1 1.9481 1 3.11765V8.76471C1 9.93425 1.9481 10.8824 3.11765 10.8824H8.76471C9.93425 10.8824 10.8824 9.93425 10.8824 8.76471V3.11765C10.8824 1.9481 9.93425 1 8.76471 1ZM3.11765 2.41176H8.76471C9.15455 2.41176 9.47059 2.7278 9.47059 3.11765V8.76471C9.47059 9.15455 9.15455 9.47059 8.76471 9.47059H3.11765C2.7278 9.47059 2.41176 9.15455 2.41176 8.76471V3.11765C2.41176 2.7278 2.7278 2.41176 3.11765 2.41176ZM22.8824 1H17.2353C16.0658 1 15.1176 1.9481 15.1176 3.11765V8.76471C15.1176 9.93425 16.0658 10.8824 17.2353 10.8824H22.8824C24.0519 10.8824 25 9.93425 25 8.76471V3.11765C25 1.9481 24.0519 1 22.8824 1ZM17.2353 2.41176H22.8824C23.2722 2.41176 23.5882 2.7278 23.5882 3.11765V8.76471C23.5882 9.15455 23.2722 9.47059 22.8824 9.47059H17.2353C16.8454 9.47059 16.5294 9.15455 16.5294 8.76471V3.11765C16.5294 2.7278 16.8454 2.41176 17.2353 2.41176ZM3.11765 15.1176H8.76471C9.93425 15.1176 10.8824 16.0658 10.8824 17.2353V22.8824C10.8824 24.0519 9.93425 25 8.76471 25H3.11765C1.9481 25 1 24.0519 1 22.8824V17.2353C1 16.0658 1.9481 15.1176 3.11765 15.1176ZM8.76471 16.5294H3.11765C2.7278 16.5294 2.41176 16.8454 2.41176 17.2353V22.8824C2.41176 23.2722 2.7278 23.5882 3.11765 23.5882H8.76471C9.15455 23.5882 9.47059 23.2722 9.47059 22.8824V17.2353C9.47059 16.8454 9.15455 16.5294 8.76471 16.5294ZM22.8824 15.1176H17.2353C16.0658 15.1176 15.1176 16.0658 15.1176 17.2353V22.8824C15.1176 24.0519 16.0658 25 17.2353 25H22.8824C24.0519 25 25 24.0519 25 22.8824V17.2353C25 16.0658 24.0519 15.1176 22.8824 15.1176ZM17.2353 16.5294H22.8824C23.2722 16.5294 23.5882 16.8454 23.5882 17.2353V22.8824C23.5882 23.2722 23.2722 23.5882 22.8824 23.5882H17.2353C16.8454 23.5882 16.5294 23.2722 16.5294 22.8824V17.2353C16.5294 16.8454 16.8454 16.5294 17.2353 16.5294Z" fill="#666666"/>
<path d="M3.11765 1.5H8.76471V0.5H3.11765V1.5ZM1.5 3.11765C1.5 2.22425 2.22425 1.5 3.11765 1.5V0.5C1.67196 0.5 0.5 1.67196 0.5 3.11765H1.5ZM1.5 8.76471V3.11765H0.5V8.76471H1.5ZM3.11765 10.3824C2.22425 10.3824 1.5 9.65811 1.5 8.76471H0.5C0.5 10.2104 1.67196 11.3824 3.11765 11.3824V10.3824ZM8.76471 10.3824H3.11765V11.3824H8.76471V10.3824ZM10.3824 8.76471C10.3824 9.65811 9.65811 10.3824 8.76471 10.3824V11.3824C10.2104 11.3824 11.3824 10.2104 11.3824 8.76471H10.3824ZM10.3824 3.11765V8.76471H11.3824V3.11765H10.3824ZM8.76471 1.5C9.65811 1.5 10.3824 2.22425 10.3824 3.11765H11.3824C11.3824 1.67196 10.2104 0.5 8.76471 0.5V1.5ZM8.76471 1.91176H3.11765V2.91176H8.76471V1.91176ZM9.97059 3.11765C9.97059 2.45166 9.4307 1.91176 8.76471 1.91176V2.91176C8.87841 2.91176 8.97059 3.00394 8.97059 3.11765H9.97059ZM9.97059 8.76471V3.11765H8.97059V8.76471H9.97059ZM8.76471 9.97059C9.4307 9.97059 9.97059 9.4307 9.97059 8.76471H8.97059C8.97059 8.87841 8.87841 8.97059 8.76471 8.97059V9.97059ZM3.11765 9.97059H8.76471V8.97059H3.11765V9.97059ZM1.91176 8.76471C1.91176 9.4307 2.45166 9.97059 3.11765 9.97059V8.97059C3.00394 8.97059 2.91176 8.87841 2.91176 8.76471H1.91176ZM1.91176 3.11765V8.76471H2.91176V3.11765H1.91176ZM3.11765 1.91176C2.45166 1.91176 1.91176 2.45166 1.91176 3.11765H2.91176C2.91176 3.00394 3.00394 2.91176 3.11765 2.91176V1.91176ZM17.2353 1.5H22.8824V0.5H17.2353V1.5ZM15.6176 3.11765C15.6176 2.22425 16.3419 1.5 17.2353 1.5V0.5C15.7896 0.5 14.6176 1.67196 14.6176 3.11765H15.6176ZM15.6176 8.76471V3.11765H14.6176V8.76471H15.6176ZM17.2353 10.3824C16.3419 10.3824 15.6176 9.65811 15.6176 8.76471H14.6176C14.6176 10.2104 15.7896 11.3824 17.2353 11.3824V10.3824ZM22.8824 10.3824H17.2353V11.3824H22.8824V10.3824ZM24.5 8.76471C24.5 9.65811 23.7758 10.3824 22.8824 10.3824V11.3824C24.328 11.3824 25.5 10.2104 25.5 8.76471H24.5ZM24.5 3.11765V8.76471H25.5V3.11765H24.5ZM22.8824 1.5C23.7758 1.5 24.5 2.22425 24.5 3.11765H25.5C25.5 1.67196 24.328 0.5 22.8824 0.5V1.5ZM22.8824 1.91176H17.2353V2.91176H22.8824V1.91176ZM24.0882 3.11765C24.0882 2.45166 23.5483 1.91176 22.8824 1.91176V2.91176C22.9961 2.91176 23.0882 3.00394 23.0882 3.11765H24.0882ZM24.0882 8.76471V3.11765H23.0882V8.76471H24.0882ZM22.8824 9.97059C23.5483 9.97059 24.0882 9.4307 24.0882 8.76471H23.0882C23.0882 8.87841 22.9961 8.97059 22.8824 8.97059V9.97059ZM17.2353 9.97059H22.8824V8.97059H17.2353V9.97059ZM16.0294 8.76471C16.0294 9.43069 16.5693 9.97059 17.2353 9.97059V8.97059C17.1216 8.97059 17.0294 8.87841 17.0294 8.76471H16.0294ZM16.0294 3.11765V8.76471H17.0294V3.11765H16.0294ZM17.2353 1.91176C16.5693 1.91176 16.0294 2.45166 16.0294 3.11765H17.0294C17.0294 3.00394 17.1216 2.91176 17.2353 2.91176V1.91176ZM8.76471 14.6176H3.11765V15.6176H8.76471V14.6176ZM11.3824 17.2353C11.3824 15.7896 10.2104 14.6176 8.76471 14.6176V15.6176C9.65811 15.6176 10.3824 16.3419 10.3824 17.2353H11.3824ZM11.3824 22.8824V17.2353H10.3824V22.8824H11.3824ZM8.76471 25.5C10.2104 25.5 11.3824 24.328 11.3824 22.8824H10.3824C10.3824 23.7758 9.65811 24.5 8.76471 24.5V25.5ZM3.11765 25.5H8.76471V24.5H3.11765V25.5ZM0.5 22.8824C0.5 24.328 1.67196 25.5 3.11765 25.5V24.5C2.22425 24.5 1.5 23.7758 1.5 22.8824H0.5ZM0.5 17.2353V22.8824H1.5V17.2353H0.5ZM3.11765 14.6176C1.67196 14.6176 0.5 15.7896 0.5 17.2353H1.5C1.5 16.3419 2.22425 15.6176 3.11765 15.6176V14.6176ZM3.11765 17.0294H8.76471V16.0294H3.11765V17.0294ZM2.91176 17.2353C2.91176 17.1216 3.00394 17.0294 3.11765 17.0294V16.0294C2.45166 16.0294 1.91176 16.5693 1.91176 17.2353H2.91176ZM2.91176 22.8824V17.2353H1.91176V22.8824H2.91176ZM3.11765 23.0882C3.00394 23.0882 2.91176 22.9961 2.91176 22.8824H1.91176C1.91176 23.5483 2.45166 24.0882 3.11765 24.0882V23.0882ZM8.76471 23.0882H3.11765V24.0882H8.76471V23.0882ZM8.97059 22.8824C8.97059 22.9961 8.87841 23.0882 8.76471 23.0882V24.0882C9.4307 24.0882 9.97059 23.5483 9.97059 22.8824H8.97059ZM8.97059 17.2353V22.8824H9.97059V17.2353H8.97059ZM8.76471 17.0294C8.87841 17.0294 8.97059 17.1216 8.97059 17.2353H9.97059C9.97059 16.5693 9.43069 16.0294 8.76471 16.0294V17.0294ZM17.2353 15.6176H22.8824V14.6176H17.2353V15.6176ZM15.6176 17.2353C15.6176 16.3419 16.3419 15.6176 17.2353 15.6176V14.6176C15.7896 14.6176 14.6176 15.7896 14.6176 17.2353H15.6176ZM15.6176 22.8824V17.2353H14.6176V22.8824H15.6176ZM17.2353 24.5C16.3419 24.5 15.6176 23.7758 15.6176 22.8824H14.6176C14.6176 24.328 15.7896 25.5 17.2353 25.5V24.5ZM22.8824 24.5H17.2353V25.5H22.8824V24.5ZM24.5 22.8824C24.5 23.7758 23.7758 24.5 22.8824 24.5V25.5C24.328 25.5 25.5 24.328 25.5 22.8824H24.5ZM24.5 17.2353V22.8824H25.5V17.2353H24.5ZM22.8824 15.6176C23.7758 15.6176 24.5 16.3419 24.5 17.2353H25.5C25.5 15.7896 24.328 14.6176 22.8824 14.6176V15.6176ZM22.8824 16.0294H17.2353V17.0294H22.8824V16.0294ZM24.0882 17.2353C24.0882 16.5693 23.5483 16.0294 22.8824 16.0294V17.0294C22.9961 17.0294 23.0882 17.1216 23.0882 17.2353H24.0882ZM24.0882 22.8824V17.2353H23.0882V22.8824H24.0882ZM22.8824 24.0882C23.5483 24.0882 24.0882 23.5483 24.0882 22.8824H23.0882C23.0882 22.9961 22.9961 23.0882 22.8824 23.0882V24.0882ZM17.2353 24.0882H22.8824V23.0882H17.2353V24.0882ZM16.0294 22.8824C16.0294 23.5483 16.5693 24.0882 17.2353 24.0882V23.0882C17.1216 23.0882 17.0294 22.9961 17.0294 22.8824H16.0294ZM16.0294 17.2353V22.8824H17.0294V17.2353H16.0294ZM17.2353 16.0294C16.5693 16.0294 16.0294 16.5693 16.0294 17.2353H17.0294C17.0294 17.1216 17.1216 17.0294 17.2353 17.0294V16.0294Z" fill="#6B7280"/>
</svg>
