<svg width="17" height="17" viewBox="0 0 17 17" fill="none" xmlns="http://www.w3.org/2000/svg">
<path d="M13.4045 10.7521C13.1864 10.9655 13.0862 11.2742 13.1359 11.5769L13.8844 15.7606C13.9476 16.1152 13.7994 16.4741 13.5055 16.679C13.2175 16.8916 12.8344 16.9171 12.5203 16.747L8.79089 14.7827C8.66121 14.713 8.51722 14.6756 8.36986 14.6713H8.14167C8.06252 14.6832 7.98505 14.7087 7.91432 14.7479L4.18404 16.7215C3.99963 16.8151 3.7908 16.8482 3.58618 16.8151C3.08769 16.7198 2.75508 16.2402 2.83676 15.7343L3.58618 11.5505C3.63586 11.2453 3.53566 10.9349 3.31757 10.718L0.27693 7.74182C0.0226308 7.49267 -0.0657844 7.11852 0.0504184 6.78093C0.163253 6.44419 0.451234 6.19844 0.799 6.14317L4.98398 5.53006C5.30228 5.4969 5.58184 5.30132 5.72499 5.0122L7.56908 1.19413C7.61286 1.1091 7.66928 1.03086 7.73749 0.964536L7.81327 0.905012C7.85285 0.860793 7.89832 0.824228 7.94884 0.794466L8.04062 0.760452L8.18377 0.700928H8.53827C8.85488 0.734091 9.1336 0.92542 9.27928 1.21114L11.1478 5.0122C11.2825 5.29027 11.5444 5.48329 11.8467 5.53006L16.0317 6.14317C16.3853 6.19419 16.6809 6.44079 16.7979 6.78093C16.9082 7.12192 16.8131 7.49607 16.5537 7.74182L13.4045 10.7521Z" fill="#ECECEF"/>
</svg>
