<svg width="24" height="24" viewBox="0 0 24 24" fill="none" xmlns="http://www.w3.org/2000/svg">
<path fill-rule="evenodd" clip-rule="evenodd" d="M13.5868 0.0167899L13.6932 0L13.8011 0.00145368L13.8517 0.00858606L13.9081 0.0215444L13.9327 0.0312529L13.9585 0.0379241L14.0118 0.0606655L14.0569 0.0846407L14.1096 0.11921L14.1451 0.146952L14.2212 0.223075L14.2835 0.311224L14.3167 0.376443L14.3513 0.478683L14.3681 0.585019L14.3697 0.629999V8.84066H21.3172C21.7965 8.84066 22.0879 9.3456 21.884 9.75197L21.828 9.84373L11.7226 23.7387C11.3853 24.2025 10.6764 24.0078 10.5891 23.4776L10.5802 23.3672V15.1565H3.63271C3.1534 15.1565 2.86203 14.6516 3.06594 14.2452L3.12193 14.1535L13.2551 0.223075L13.3312 0.146952L13.4194 0.0846407L13.4846 0.0514299L13.5868 0.0167899ZM13.1065 2.5715L4.87189 13.8934H11.2118C11.5218 13.8934 11.7797 14.1168 11.8332 14.4114L11.8434 14.525V21.4232L20.0755 10.1038H13.7381C13.4281 10.1038 13.1702 9.88041 13.1167 9.58577L13.1065 9.47224V2.5715Z" fill="#666666"/>
</svg>
