<svg width="16" height="16" viewBox="0 0 16 16" fill="none" xmlns="http://www.w3.org/2000/svg">
<path d="M15.2986 6.21466C15.2596 6.0982 15.1891 5.9948 15.095 5.91586C15.0009 5.83692 14.8868 5.78552 14.7653 5.76733L10.5106 5.11733L8.6013 1.05066C8.54747 0.93613 8.46214 0.839289 8.3553 0.771457C8.24846 0.703624 8.12452 0.667603 7.99797 0.667603C7.87142 0.667603 7.74748 0.703624 7.64064 0.771457C7.5338 0.839289 7.44847 0.93613 7.39464 1.05066L5.4853 5.11733L1.23064 5.76733C1.10945 5.7858 0.995703 5.83733 0.9019 5.91625C0.808097 5.99517 0.737871 6.09842 0.69894 6.21466C0.66001 6.3309 0.653883 6.45563 0.681234 6.57512C0.708584 6.69462 0.768353 6.80426 0.853969 6.892L3.95464 10.0667L3.2213 14.5587C3.20129 14.6819 3.21631 14.8084 3.26465 14.9235C3.31299 15.0387 3.3927 15.1379 3.49471 15.21C3.59672 15.2821 3.71692 15.324 3.84161 15.3311C3.9663 15.3382 4.09047 15.3101 4.19997 15.25L7.99997 13.1513L11.8 15.25C11.9095 15.3106 12.0338 15.3391 12.1588 15.3323C12.2837 15.3255 12.4042 15.2837 12.5065 15.2117C12.6088 15.1396 12.6888 15.0402 12.7373 14.9249C12.7858 14.8095 12.8008 14.6828 12.7806 14.5593L12.0473 10.0673L15.146 6.892C15.2312 6.80401 15.2905 6.69426 15.3174 6.57477C15.3444 6.45529 15.3379 6.33069 15.2986 6.21466Z" fill="#FFCF6D"/>
</svg>
